<?xml version="1.0" encoding="UTF-8"?>
<svg id="Layer_1" data-name="Layer 1" xmlns="http://www.w3.org/2000/svg" viewBox="0 0 300 300">
  <defs>
    <style>
      .cls-1 {
        fill: #1d1d1b;
      }
    </style>
  </defs>
  <path class="cls-1" d="M150,254.91l-40.72-23.51v-70.52l38.04,21.97v26.27l-1.64,.62c-4.33,1.63-7.24,5.82-7.24,10.43,0,6.15,5.01,11.16,11.16,11.16s11.16-5.01,11.16-11.16c0-4.64-2.93-8.84-7.29-10.46l-1.65-.61-.09-83.5,38.96,22.49,.03,83.32-40.72,23.51Zm-35.66-26.43l35.66,20.59,35.66-20.59-.03-77.47-28.84-16.64,.09,71.32c5.41,2.73,8.94,8.34,8.94,14.48,0,8.95-7.28,16.22-16.22,16.22s-16.22-7.28-16.22-16.22c0-6.1,3.5-11.7,8.88-14.44v-19.95l-27.92-16.12v58.83Z"/>
  <path class="cls-1" d="M147.32,177.77l-38.04-22.49V68.6l40.72-23.51,40.72,23.51v74.37l-38.9-22.46v-26.21l1.65-.61c4.36-1.62,7.29-5.82,7.29-10.46,0-6.15-5.01-11.16-11.16-11.16s-11.16,5.01-11.16,11.16c0,4.61,2.91,8.8,7.24,10.43l1.64,.62v83.48Zm-32.98-25.38l27.92,16.51V97.68c-5.38-2.74-8.88-8.34-8.88-14.45,0-8.95,7.28-16.22,16.22-16.22s16.22,7.28,16.22,16.22c0,6.14-3.53,11.75-8.94,14.48v19.87l28.78,16.61v-62.68l-35.66-20.59-35.66,20.59v80.86Z"/>
  <g>
    <path class="cls-1" d="M199.81,72.59v20.43l28.33,16.35h.1v44c5.25,1.95,9,6.98,9,12.91,0,7.61-6.17,13.78-13.78,13.78s-13.78-6.17-13.78-13.78c0-5.93,3.75-10.97,9-12.91v-38.42l-18.86-10.89v123.35l45.19-26.09V98.68l-45.19-26.09Z"/>
    <path class="cls-1" d="M216.04,166.28c0,4.09,3.32,7.41,7.41,7.41s7.41-3.32,7.41-7.41c0-2.26-1.03-4.25-2.63-5.61-1.29-1.1-2.95-1.79-4.78-1.79s-3.49,.69-4.78,1.79c-1.59,1.36-2.63,3.36-2.63,5.61Z"/>
    <path class="cls-1" d="M55,201.32l44.93,25.94v-20.12l-27.19-15.7h-.1v-44c-5.25-1.95-9-6.98-9-12.91,0-7.61,6.17-13.78,13.78-13.78s13.78,6.17,13.78,13.78c0,5.93-3.75,10.97-9,12.91v38.42l17.73,10.24V72.74l-44.93,25.94v102.64Z"/>
    <path class="cls-1" d="M84.82,134.53c0-4.09-3.32-7.41-7.41-7.41s-7.41,3.32-7.41,7.41c0,2.26,1.03,4.25,2.63,5.61,1.29,1.1,2.95,1.79,4.78,1.79s3.49-.69,4.78-1.79c1.59-1.36,2.63-3.36,2.63-5.61Z"/>
  </g>
</svg>